# xmcd
#
# Track frame offsets:
# 150
# 9862
# 23362
# 35024
# 43700
# 56883
# 68620
# 80845
# 96032
# 118152
# 126664
# 142864
#
# Disc length: 2087 seconds
#
#
# Revision: 0
# Processed by: cddbd v1.5.2PL0 Copyright (c) Steve Scherf et al.
# Submitted via: FreeRIP 2.945 
#
DISCID=9e08250c
DTITLE=Woody Pines - Lonesome Shack Blues
DYEAR=1900
DGENRE=Blues
TTITLE0=Lonesome Shack
TTITLE1=Train Carried My Gal From Town
TTITLE2=You Can't Win
TTITLE3=Duncan and Brady
TTITLE4=Death of Mother Jones
TTITLE5=If You Don't Want Me
TTITLE6=Stew Ball
TTITLE7=Delia
TTITLE8=Blues All Around My Bed
TTITLE9=The World Stands Still
TTITLE10=CandyMan
TTITLE11=Delta Bound
EXTD=
EXTT0=
EXTT1=
EXTT2=
EXTT3=
EXTT4=
EXTT5=
EXTT6=
EXTT7=
EXTT8=
EXTT9=
EXTT10=
EXTT11=
PLAYORDER=
